<svg xmlns="http://www.w3.org/2000/svg" viewBox="0 0 1211.23 251.35"><defs><style>.cls-1{fill:#5a86c4;}.cls-2{fill:#6e99d1;}.cls-3{fill:#e3c6bb;}.cls-4{fill:#ccb0a8;}.cls-5{fill:#98bd61;}.cls-6{fill:#aacd77;}.cls-7{fill:#edbc5a;}.cls-8{fill:#f8cf6a;}.cls-9{font-size:160px;fill:#fff;font-family:UniSansHeavyCAPS, Uni Sans;}.cls-10{letter-spacing:-0.04em;}.cls-11{letter-spacing:0em;}.cls-12{letter-spacing:-0.01em;}.cls-13{letter-spacing:-0.02em;}.cls-14{letter-spacing:-0.02em;}</style></defs><title>Fichier 3</title><g id="Calque_2" data-name="Calque 2"><g id="Calque_1-2" data-name="Calque 1"><path class="cls-1" d="M4.05,158.11H36.49V247.3H4.05Z"/><path class="cls-2" d="M36.49,158.11H60.81v81.08H36.49Z"/><path class="cls-3" d="M60.81,231.08H93.24l24.33,16.22L247.3,218.92v-4a16.22,16.22,0,0,0-16.22-16.22H133.79V197.6a8.16,8.16,0,0,0-1.95-5.28l-22.38-26.1H60.81"/><path class="cls-4" d="M60.81,166.22h48.65l22.38,26.1a8.16,8.16,0,0,1,1.95,5.28v5.1a8.11,8.11,0,0,1-8.11,8.11h-4.75a8.12,8.12,0,0,1-5.74-2.37L97.3,190.54H60.81"/><path class="cls-5" d="M174.33,146V109.46H162.16l20.27-20.27,20.27,20.27H190.54V146"/><path class="cls-5" d="M16.22,105.41V68.92H4.05L24.32,48.65,44.6,68.92H32.43v36.49"/><path class="cls-5" d="M60.81,146V109.46H48.65L68.92,89.19l20.27,20.27H77V146"/><path class="cls-5" d="M218.92,105.41V68.92H206.76L227,48.65,247.3,68.92H235.14v36.49"/><path class="cls-6" d="M227,48.65,206.76,68.92h12.16v36.49H227"/><path class="cls-6" d="M182.43,89.19l-20.27,20.27h12.17V146h8.1"/><path class="cls-6" d="M24.32,48.65,4.05,68.92H16.22v36.49h8.1"/><path class="cls-6" d="M68.92,89.19,48.65,109.46H60.81V146h8.11"/><path class="cls-7" d="M174.33,52.7A48.65,48.65,0,1,1,125.68,4.05,48.65,48.65,0,0,1,174.33,52.7Z"/><path class="cls-8" d="M162.16,52.7c0-26.63-19-48.22-42.56-48.22S77,26.07,77,52.7s19.06,48.23,42.57,48.23S162.16,79.34,162.16,52.7Z"/><path d="M129.73,56.76H109.46a4.05,4.05,0,0,1-4-4.06V28.38a4.05,4.05,0,0,1,4-4.06h20.27a16.22,16.22,0,0,1,0,32.44Zm-16.22-8.11h16.22a8.11,8.11,0,1,0,0-16.22H113.51Z"/><path d="M129.73,81.08H109.46a4,4,0,0,1-4-4V52.7a4.05,4.05,0,0,1,4-4.05h20.27a16.22,16.22,0,1,1,0,32.43ZM113.51,73h16.22a8.11,8.11,0,1,0,0-16.21H113.51Z"/><path d="M113.51,16.22h8.11V28.38h-8.11Z"/><path d="M125.68,16.22h8.11V28.38h-8.11Z"/><path d="M113.51,77h8.11V89.19h-8.11Z"/><path d="M125.68,77h8.11V89.19h-8.11Z"/><path d="M125.68,105.41a52.71,52.71,0,1,1,52.7-52.71A52.78,52.78,0,0,1,125.68,105.41Zm0-97.3A44.6,44.6,0,1,0,170.27,52.7,44.65,44.65,0,0,0,125.68,8.11Z"/><path d="M89.19,48.65H97.3v8.11H89.19Z"/><path d="M154.06,48.65h8.1v8.11h-8.1Z"/><path d="M36.49,251.35H4.05a4.05,4.05,0,0,1-4-4V158.11a4.05,4.05,0,0,1,4.05-4.05H36.49a4,4,0,0,1,4,4.05V247.3A4,4,0,0,1,36.49,251.35Zm-28.38-8.1H32.43V162.16H8.11Z"/><path d="M60.81,243.25H36.49a4.06,4.06,0,0,1-4.06-4.06V158.11a4.05,4.05,0,0,1,4.06-4.05H60.81a4.05,4.05,0,0,1,4.06,4.05v81.08A4.06,4.06,0,0,1,60.81,243.25Zm-20.27-8.11H56.76v-73H40.54Z"/><path d="M125.68,214.87h-4.75a12.08,12.08,0,0,1-8.6-3.57l-17.9-17.89,5.73-5.73,17.9,17.89a4,4,0,0,0,2.87,1.19h4.75a4.06,4.06,0,0,0,4-4.06v-5.1a4.06,4.06,0,0,0-1-2.64L107.6,170.27H60.81v-8.11h48.65a4.06,4.06,0,0,1,3.08,1.42l22.37,26.1a12.17,12.17,0,0,1,2.93,7.92v5.1A12.18,12.18,0,0,1,125.68,214.87Z"/><text/><path d="M113.51,101.35h8.11v28.38h-8.11Z"/><path d="M129.73,121.62h8.11v32.44h-8.11Z"/><path d="M113.51,146h8.11v28.38h-8.11Z"/><path d="M36.49,105.41H28.38V68.92a4.05,4.05,0,0,1,4.05-4h2.38L24.32,54.38,13.84,64.87h2.38a4,4,0,0,1,4.05,4v36.49H12.16V73H4.05a4.05,4.05,0,0,1-2.86-6.92L21.46,45.78a4.06,4.06,0,0,1,5.73,0L47.46,66.05A4.05,4.05,0,0,1,44.6,73H36.49Z"/><path d="M81.08,146H73V109.46a4.05,4.05,0,0,1,4.06-4h2.38L68.92,94.92,58.44,105.41h2.37a4.05,4.05,0,0,1,4.06,4V146H56.76V113.51H48.65a4.05,4.05,0,0,1-2.87-6.92L66.05,86.32a4.07,4.07,0,0,1,5.74,0l20.27,20.27a4.05,4.05,0,0,1-2.87,6.92H81.08Z"/><path d="M239.19,105.41h-8.11V68.92a4.05,4.05,0,0,1,4.06-4h2.38L227,54.38,216.55,64.87h2.37a4.05,4.05,0,0,1,4.06,4v36.49h-8.11V73h-8.11a4.05,4.05,0,0,1-2.87-6.92l20.27-20.27a4.07,4.07,0,0,1,5.74,0l20.27,20.27A4.05,4.05,0,0,1,247.3,73h-8.11Z"/><path d="M194.6,146h-8.11V109.46a4.05,4.05,0,0,1,4-4h2.38L182.43,94.92,172,105.41h2.38a4,4,0,0,1,4,4V146h-8.11V113.51h-8.11a4.05,4.05,0,0,1-2.86-6.92l20.27-20.27a4.06,4.06,0,0,1,5.73,0l20.27,20.27a4.05,4.05,0,0,1-2.87,6.92h-8.1Z"/><text class="cls-9" transform="translate(323.4 188.96)">c<tspan class="cls-10" x="93.12" y="0">r</tspan><tspan class="cls-11" x="189.92" y="0">yp</tspan><tspan class="cls-12" x="393.6" y="0">t</tspan><tspan class="cls-13" x="486.24" y="0">o</tspan><tspan class="cls-11" x="589.6" y="0">ap</tspan><tspan class="cls-14" x="792.16" y="0">p</tspan></text></g></g></svg>